<mxfile host="Electron" agent="Mozilla/5.0 (Windows NT 10.0; Win64; x64) AppleWebKit/537.36 (KHTML, like Gecko) draw.io/24.7.8 Chrome/128.0.6613.36 Electron/32.0.1 Safari/537.36" version="24.7.8">
  <diagram id="R2lEEEUBdFMjLlhIrx00" name="Page-1">
    <mxGraphModel dx="978" dy="599" grid="1" gridSize="10" guides="1" tooltips="1" connect="1" arrows="1" fold="1" page="1" pageScale="1" pageWidth="850" pageHeight="1100" math="0" shadow="0" extFonts="Permanent Marker^https://fonts.googleapis.com/css?family=Permanent+Marker">
      <root>
        <mxCell id="0" />
        <mxCell id="1" parent="0" />
        <mxCell id="2-Wb51S8ft1qESuDAhui-1" value="Компонент &quot;Бронирование автомобилей для сотрудников&quot;" style="rounded=0;whiteSpace=wrap;html=1;" vertex="1" parent="1">
          <mxGeometry x="315" y="10" width="220" height="70" as="geometry" />
        </mxCell>
        <mxCell id="2-Wb51S8ft1qESuDAhui-37" value="" style="edgeStyle=orthogonalEdgeStyle;rounded=0;orthogonalLoop=1;jettySize=auto;html=1;" edge="1" parent="1" source="2-Wb51S8ft1qESuDAhui-4" target="2-Wb51S8ft1qESuDAhui-36">
          <mxGeometry relative="1" as="geometry" />
        </mxCell>
        <mxCell id="2-Wb51S8ft1qESuDAhui-4" value="Бронирование&lt;br&gt;(BOOKINGS_IBLOCK_ID)&lt;div&gt;-----------------------&lt;br&gt;ID&lt;br&gt;PROPERTY_CAR&lt;br&gt;PROPERTY_START_DATE&lt;br&gt;PROPERTY_END_DATE&lt;/div&gt;" style="shape=process;whiteSpace=wrap;html=1;backgroundOutline=1;rounded=0;" vertex="1" parent="1">
          <mxGeometry x="330" y="720" width="190" height="170" as="geometry" />
        </mxCell>
        <mxCell id="2-Wb51S8ft1qESuDAhui-6" value="Автомобили&lt;br&gt;(CARS_IBLOCK_ID)&lt;br&gt;-----------------------&lt;br&gt;ID&lt;br&gt;NAME&lt;br&gt;PROPERTY_MODEL&lt;br&gt;PROPERTY_COMFORT_CATEGORY&lt;br&gt;PROPERTY_DRIVER" style="shape=process;whiteSpace=wrap;html=1;backgroundOutline=1;" vertex="1" parent="1">
          <mxGeometry x="295" y="420" width="260" height="170" as="geometry" />
        </mxCell>
        <mxCell id="2-Wb51S8ft1qESuDAhui-26" value="" style="edgeStyle=orthogonalEdgeStyle;rounded=0;orthogonalLoop=1;jettySize=auto;html=1;" edge="1" parent="1" source="2-Wb51S8ft1qESuDAhui-7" target="2-Wb51S8ft1qESuDAhui-6">
          <mxGeometry relative="1" as="geometry" />
        </mxCell>
        <mxCell id="2-Wb51S8ft1qESuDAhui-7" value="Должности&lt;div&gt;(POSITIONS_HLBLOCK_ID)&lt;br&gt;-----------------------&lt;br&gt;&lt;/div&gt;&lt;div&gt;ID&lt;br&gt;UF_COMFORT_CATEGORIES&lt;/div&gt;" style="shape=process;whiteSpace=wrap;html=1;backgroundOutline=1;" vertex="1" parent="1">
          <mxGeometry x="315" y="160" width="220" height="170" as="geometry" />
        </mxCell>
        <mxCell id="2-Wb51S8ft1qESuDAhui-23" value="" style="edgeStyle=orthogonalEdgeStyle;rounded=0;orthogonalLoop=1;jettySize=auto;html=1;exitX=0.5;exitY=1;exitDx=0;exitDy=0;" edge="1" parent="1" source="2-Wb51S8ft1qESuDAhui-1" target="2-Wb51S8ft1qESuDAhui-7">
          <mxGeometry relative="1" as="geometry">
            <mxPoint x="424.705882352941" y="220" as="sourcePoint" />
          </mxGeometry>
        </mxCell>
        <mxCell id="2-Wb51S8ft1qESuDAhui-28" value="" style="endArrow=classic;startArrow=classic;html=1;rounded=0;entryX=0.5;entryY=1;entryDx=0;entryDy=0;exitX=0.5;exitY=0;exitDx=0;exitDy=0;" edge="1" parent="1" source="2-Wb51S8ft1qESuDAhui-4" target="2-Wb51S8ft1qESuDAhui-6">
          <mxGeometry width="50" height="50" relative="1" as="geometry">
            <mxPoint x="350" y="660" as="sourcePoint" />
            <mxPoint x="400" y="610" as="targetPoint" />
          </mxGeometry>
        </mxCell>
        <mxCell id="2-Wb51S8ft1qESuDAhui-29" value="Проверяем авторизирован ли пользователь" style="text;html=1;align=center;verticalAlign=middle;whiteSpace=wrap;rounded=0;" vertex="1" parent="1">
          <mxGeometry x="435" y="90" width="110" height="60" as="geometry" />
        </mxCell>
        <mxCell id="2-Wb51S8ft1qESuDAhui-31" value="&lt;span style=&quot;text-wrap: nowrap;&quot;&gt;Обращение к Highload-блоку,&lt;/span&gt;&lt;div&gt;&lt;span style=&quot;text-wrap: nowrap;&quot;&gt;который&amp;nbsp;&lt;/span&gt;&lt;span style=&quot;background-color: initial; text-wrap: nowrap;&quot;&gt;создается&amp;nbsp;&lt;/span&gt;&lt;span style=&quot;background-color: initial; text-wrap: nowrap;&quot;&gt;в&amp;nbsp;&lt;/span&gt;&lt;/div&gt;&lt;div&gt;&lt;span style=&quot;background-color: initial; text-wrap: nowrap;&quot;&gt;административной части&amp;nbsp;&lt;/span&gt;&lt;/div&gt;&lt;div&gt;&lt;span style=&quot;background-color: initial; text-wrap: nowrap;&quot;&gt;Битрикса&lt;/span&gt;&lt;/div&gt;" style="text;html=1;align=center;verticalAlign=middle;whiteSpace=wrap;rounded=0;" vertex="1" parent="1">
          <mxGeometry x="545" y="210" width="165" height="70" as="geometry" />
        </mxCell>
        <mxCell id="2-Wb51S8ft1qESuDAhui-32" value="Обращение к инфоблоку, который создается в административной части Битрикса" style="text;html=1;align=center;verticalAlign=middle;whiteSpace=wrap;rounded=0;" vertex="1" parent="1">
          <mxGeometry x="440" y="340" width="150" height="70" as="geometry" />
        </mxCell>
        <mxCell id="2-Wb51S8ft1qESuDAhui-33" value="Обращение к инфоблоку Бронирования. Влияет на список доступных автомобилей (двусторонняя связь с предыдущим блоком)" style="text;html=1;align=center;verticalAlign=middle;whiteSpace=wrap;rounded=0;" vertex="1" parent="1">
          <mxGeometry x="440" y="600" width="150" height="110" as="geometry" />
        </mxCell>
        <mxCell id="2-Wb51S8ft1qESuDAhui-36" value="Вывод" style="shape=parallelogram;perimeter=parallelogramPerimeter;whiteSpace=wrap;html=1;fixedSize=1;rounded=0;" vertex="1" parent="1">
          <mxGeometry x="365" y="940" width="120" height="60" as="geometry" />
        </mxCell>
      </root>
    </mxGraphModel>
  </diagram>
</mxfile>
